# xmcd
#
# Track frame offsets: 
#        150
#        24805
#        51557
#        66167
#        88900
#        112817
#        134512
#        158800
#        183815
#        210547
#        230062
#        253062
#        279415
#        304647
#        335672
#
# Disc length: 4795 seconds
#
# Revision: 1
# Processed by: cddbd v1.5PL3 Copyright (c) Steve Scherf et al.
# Submitted via: ExactAudioCopy v0.90b4
#
DISCID=d412b90f
DTITLE=B'z - The Ballads -Love and B'z-
DYEAR=1900
DGENRE=Rock
TTITLE0=Itsuka no "Merry Christmas"
TTITLE1=ALONE
TTITLE2=Konya tsuki no mieru oka ni
TTITLE3=HOME
TTITLE4=Calling
TTITLE5=TIME
TTITLE6=Kienai niji
TTITLE7=Gekko
TTITLE8=Happiness
TTITLE9=Mou ichido Kiss shitakatta
TTITLE10=Naite naite nakiyandara
TTITLE11=ONE
TTITLE12=Everlasting
TTITLE13=GOLD
TTITLE14=SNOW
EXTD=
EXTT0=
EXTT1=
EXTT2=
EXTT3=
EXTT4=
EXTT5=
EXTT6=
EXTT7=
EXTT8=
EXTT9=
EXTT10=
EXTT11=
EXTT12=
EXTT13=
EXTT14=
PLAYORDER=
